<svg xmlns="http://www.w3.org/2000/svg" viewBox="0 0 251.29 253.18"><title>Pharmed Logo</title><g id="b4ac8d25-326c-4407-a704-ff6ed4029deb" data-name="Layer 2"><g id="a9ece00b-db92-4c14-9d62-9678dce10423" data-name="Layer 1"><path d="M87.48,0H251.29V216.44H34.17v-79s69.24,7.5,91.34-17.88c0,0,37.34-28.12,14.5-82.34C140,37.2,123.26,7,87.48,0Z" style="fill:#bcbec0;fill-rule:evenodd"/><path d="M0,60.43C0,34.07,21.84,12.69,48.79,12.69S97.57,34.07,97.57,60.43s-21.84,47.75-48.78,47.75S0,86.8,0,60.43ZM79.79,240.49v8.19a8.33,8.33,0,0,1-.21,2.47,1.93,1.93,0,0,1-.8.94,3.52,3.52,0,0,1-1.83.41h-.84v.68H89.76v-.68h-.84a3.51,3.51,0,0,1-1.76-.38,2,2,0,0,1-.87-.89,9,9,0,0,1-.21-2.55V231.31a8.28,8.28,0,0,1,.21-2.47,1.87,1.87,0,0,1,.79-.94,3.49,3.49,0,0,1,1.84-.41h.84v-.68H76.11v.68H77a3.54,3.54,0,0,1,1.76.38,2.07,2.07,0,0,1,.87.9,8.84,8.84,0,0,1,.21,2.54v7.47H70.48v-7.47a8.28,8.28,0,0,1,.21-2.47,1.87,1.87,0,0,1,.79-.94,3.5,3.5,0,0,1,1.83-.41h.85v-.68H60.52v.68h.86a3.45,3.45,0,0,1,1.74.38,2,2,0,0,1,.87.9,9.41,9.41,0,0,1,.2,2.54v17.37a8.86,8.86,0,0,1-.2,2.47,1.9,1.9,0,0,1-.78.94,3.59,3.59,0,0,1-1.83.41h-.86v.68H74.16v-.68h-.85a3.43,3.43,0,0,1-1.74-.38,2.1,2.1,0,0,1-.87-.89,9.28,9.28,0,0,1-.22-2.55v-8.19Zm86.37-13.68h-10.7v.68h.83a3.54,3.54,0,0,1,1.76.38,2,2,0,0,1,.88.9,8.84,8.84,0,0,1,.21,2.54V248c0,1.18,0,1.85,0,2a3.89,3.89,0,0,1-.6,1.43,2.68,2.68,0,0,1-1.15.82,4.28,4.28,0,0,1-1.62.28h-.27v.68h9v-.68a4.48,4.48,0,0,1-2.64-.62,2.83,2.83,0,0,1-1.11-1.59,20,20,0,0,1-.09-2.4V229.35l10.21,23.83h.47l10.08-24v19.51a8.33,8.33,0,0,1-.21,2.47,2.06,2.06,0,0,1-.77.94,3.67,3.67,0,0,1-1.85.41h-.86v.68h13.67v-.68h-.85a3.54,3.54,0,0,1-1.76-.38,1.91,1.91,0,0,1-.86-.89,8.88,8.88,0,0,1-.22-2.55V231.31a8.28,8.28,0,0,1,.22-2.48,1.83,1.83,0,0,1,.77-.92,3.52,3.52,0,0,1,1.85-.42h.85v-.68H180.72l-7.16,17.38Zm41.71,1.51a15,15,0,0,1,4,.36,5.83,5.83,0,0,1,2.85,1.82,9.47,9.47,0,0,1,1.57,4.11h.75v-7.8H195.17v.68H196a3.33,3.33,0,0,1,2,.55,1.86,1.86,0,0,1,.71,1.05,14.71,14.71,0,0,1,.1,2.22v17.37a8.19,8.19,0,0,1-.22,2.47,1.75,1.75,0,0,1-.77.94,3.62,3.62,0,0,1-1.83.41h-.86v.68h22.64L219,244.8h-.71a9.5,9.5,0,0,1-3.19,5.2,9.35,9.35,0,0,1-5.89,1.7h-1.57a3.17,3.17,0,0,1-1.62-.31,1.66,1.66,0,0,1-.69-.8,10.83,10.83,0,0,1-.18-2.65v-7.41a6.45,6.45,0,0,1,2.87.5,4.17,4.17,0,0,1,1.73,1.92,10.32,10.32,0,0,1,1,3.7h.75V232.86h-.75a9.66,9.66,0,0,1-1.43,4.63,4.17,4.17,0,0,1-3.63,1.57h-.52V228.32Zm-164,12.92a29.23,29.23,0,0,0,6.35-.46,8.07,8.07,0,0,0,4.38-2.49,6.46,6.46,0,0,0,1.58-4.4,6.25,6.25,0,0,0-2.46-5c-1.63-1.35-4.34-2-8.1-2H34.17v.68a6.13,6.13,0,0,1,2.46.33,1.94,1.94,0,0,1,.92.89,8.19,8.19,0,0,1,.26,2.72v17.13a8,8,0,0,1-.26,2.7,2,2,0,0,1-.92.9,6,6,0,0,1-2.46.34v.68H47.51v-.68a6.12,6.12,0,0,1-2.45-.34,1.86,1.86,0,0,1-.92-.89,7.66,7.66,0,0,1-.28-2.71v-7.32Zm.8-12.92a5,5,0,0,1,3.82,1.37,6.06,6.06,0,0,1,1.29,4.3,6.37,6.37,0,0,1-1.29,4.38,4.67,4.67,0,0,1-3.64,1.41c-.22,0-.55,0-1-.05V228.32Zm64.55,17.34,1.42,3.28c.36.88.56,1.37.58,1.49a2.36,2.36,0,0,1,.12.72,1.06,1.06,0,0,1-.43.92,4,4,0,0,1-2.15.43h-.52v.68h12.68v-.68a3,3,0,0,1-1.85-.71,13.54,13.54,0,0,1-2.23-3.91l-9.45-21.59H107l-9.37,21a15.88,15.88,0,0,1-2.23,4,3.94,3.94,0,0,1-2.33,1.19v.68h8.71v-.68a7.15,7.15,0,0,1-2.56-.48,1.78,1.78,0,0,1-.89-1.64,5.89,5.89,0,0,1,.54-2.15l1.15-2.57Zm-8.55-1.43,4-9,3.91,9Zm33.6-3.06H136l8.46,12h8.26v-.72a3.35,3.35,0,0,1-1.85-.66,13.29,13.29,0,0,1-1.76-2.15l-6.3-8.92a8.66,8.66,0,0,0,3.74-1.81,6.24,6.24,0,0,0,2.1-4.83,6.63,6.63,0,0,0-1.39-4.17,7.08,7.08,0,0,0-3.6-2.44,26.09,26.09,0,0,0-7-.67H124.49v.68a6.17,6.17,0,0,1,2.45.33,2,2,0,0,1,.92.88,8,8,0,0,1,.26,2.68V248.6a7.82,7.82,0,0,1-.26,2.67,1.92,1.92,0,0,1-.91.89,6.08,6.08,0,0,1-2.46.34v.68H137.9v-.68a6.45,6.45,0,0,1-2.47-.33,2,2,0,0,1-.91-.89,7.93,7.93,0,0,1-.26-2.68v-7.43Zm2.07-12.89a5.11,5.11,0,0,1,5.93,5.87,6.51,6.51,0,0,1-.77,3.35,4,4,0,0,1-2.1,1.78,12.32,12.32,0,0,1-4,.5h-1.1v-11.5Zm87.28,24.9h11.74a21.5,21.5,0,0,0,3.71-.24,16.61,16.61,0,0,0,4.51-1.44,11.41,11.41,0,0,0,3.27-2.44,12.38,12.38,0,0,0,2.29-3.86,15.36,15.36,0,0,0-.92-12.34,11.17,11.17,0,0,0-5.31-4.76,18.57,18.57,0,0,0-7.55-1.29H223.61v.68h.88a3.41,3.41,0,0,1,1.73.38,2,2,0,0,1,.86.9,8.69,8.69,0,0,1,.22,2.54v17.37a9.23,9.23,0,0,1-.18,2.47,2.26,2.26,0,0,1-.9,1,3.51,3.51,0,0,1-1.73.36h-.88v.68Zm14.61-24.31a6.83,6.83,0,0,1,3.25,3.22,17.72,17.72,0,0,1,1.58,8.11c0,4.2-.78,7.29-2.32,9.29a5.88,5.88,0,0,1-4.95,2.21,3.18,3.18,0,0,1-1.51-.29,1.11,1.11,0,0,1-.52-.57,6.86,6.86,0,0,1-.16-2V228.28A12.57,12.57,0,0,1,238.22,228.87Z" style="fill:#007dc5;fill-rule:evenodd"/></g></g></svg>